<svg xmlns="http://www.w3.org/2000/svg" viewBox="0 0 480.011 480.011">
                        <linearGradient id="SVGID_1_" gradientUnits="userSpaceOnUse" x1="-31.3569" y1="618.9692" x2="-31.3569" y2="553.7772" gradientTransform="matrix(8 0 0 -8 454.9341 4941.1006)">
                            <stop offset="0" style="stop-color:rgb(72, 179, 1)" />
                            <stop offset="0.04" style="stop-color:rgb(75, 224, 45)" />
                            <stop offset="0.117" style="stop-color:rgb(27, 254, 57)" />
                            <stop offset="0.196" style="stop-color:rgb(16, 253, 134)" />
                            <stop offset="0.281" style="stop-color:rgb(12, 165, 253)" />
                            <stop offset="0.669" style="stop-color:rgb(33, 132, 245)" />
                            <stop offset="0.888" style="stop-color:rgb(60, 101, 237)" />
                            <stop offset="1" style="stop-color:rgb(35, 15, 218)" />
                        </linearGradient>
                        <path style="fill:url(#SVGID_1_);" d="M7.873,239.899h0.28c4.314,0.002,7.853-3.416,8-7.728
                            C20.481,108.535,124.216,11.817,247.852,16.144c47.556,1.665,93.346,18.43,130.733,47.867h-42.576c-4.418,0-8,3.582-8,8s3.582,8,8,8
                            h64h0.112c0.626-0.051,1.243-0.174,1.84-0.368c0.409-0.059,0.812-0.147,1.208-0.264c0.224-0.096,0.392-0.296,0.608-0.416
                            c0.718-0.351,1.377-0.813,1.952-1.368l0.08-0.056c0.203-0.278,0.388-0.569,0.552-0.872c0.419-0.51,0.772-1.072,1.048-1.672
                            c0.22-0.638,0.355-1.303,0.4-1.976c0.092-0.33,0.159-0.667,0.2-1.008v-64c0-4.418-3.582-8-8-8s-8,3.582-8,8v46.336
                            C289.508-29.635,138.332-14.623,54.35,87.879C21.017,128.563,1.975,179.072,0.153,231.635C0.005,236.048,3.46,239.747,7.873,239.899
                            L7.873,239.899z" />
                        <g>

                            <linearGradient id="SVGID_2_" gradientUnits="userSpaceOnUse" x1="-47.4933" y1="618.9692" x2="-47.4933" y2="553.7772" gradientTransform="matrix(8 0 0 -8 454.9341 4941.1006)">
                                <stop offset="0" style="stop-color:rgb(72, 179, 1)" />
                                <stop offset="0.04" style="stop-color:rgb(75, 224, 45)" />
                                <stop offset="0.117" style="stop-color:rgb(27, 254, 57)" />
                                <stop offset="0.196" style="stop-color:rgb(16, 253, 134)" />
                                <stop offset="0.281" style="stop-color:rgb(12, 165, 253)" />
                                <stop offset="0.669" style="stop-color:rgb(33, 132, 245)" />
                                <stop offset="0.888" style="stop-color:rgb(60, 101, 237)" />
                                <stop offset="1" style="stop-color:rgb(35, 15, 218)" />
                            </linearGradient>
                            <path style="fill:url(#SVGID_2_);" d="M72.641,388.883c-2.936-3.314-8.002-3.62-11.316-0.684c-3.314,2.936-3.62,8.002-0.684,11.316
                                l0,0c5.507,6.18,11.325,12.076,17.432,17.664c3.321,2.915,8.375,2.585,11.29-0.735c2.832-3.227,2.612-8.113-0.498-11.073
                                C83.179,400.156,77.764,394.653,72.641,388.883L72.641,388.883z" />

                            <linearGradient id="SVGID_3_" gradientUnits="userSpaceOnUse" x1="-37.5791" y1="618.9692" x2="-37.5791" y2="553.7772" gradientTransform="matrix(8 0 0 -8 454.9341 4941.1006)">
                                <stop offset="0" style="stop-color:rgb(72, 179, 1)" />
                                <stop offset="0.04" style="stop-color:rgb(75, 224, 45)" />
                                <stop offset="0.117" style="stop-color:rgb(27, 254, 57)" />
                                <stop offset="0.196" style="stop-color:rgb(16, 253, 134)" />
                                <stop offset="0.281" style="stop-color:rgb(12, 165, 253)" />
                                <stop offset="0.669" style="stop-color:rgb(33, 132, 245)" />
                                <stop offset="0.888" style="stop-color:rgb(60, 101, 237)" />
                                <stop offset="1" style="stop-color:rgb(35, 15, 218)" />
                            </linearGradient>
                            <path style="fill:url(#SVGID_3_);" d="M168.113,452.227c-7.314-2.476-14.494-5.331-21.512-8.552
                                c-3.959-1.961-8.759-0.341-10.72,3.618c-1.961,3.959-0.341,8.759,3.618,10.72c0.136,0.067,0.274,0.131,0.414,0.19
                                c7.524,3.464,15.226,6.529,23.072,9.184c4.186,1.416,8.728-0.83,10.144-5.016C174.545,458.185,172.3,453.643,168.113,452.227
                                L168.113,452.227L168.113,452.227z" />

                            <linearGradient id="SVGID_4_" gradientUnits="userSpaceOnUse" x1="-42.8771" y1="618.9692" x2="-42.8771" y2="553.7772" gradientTransform="matrix(8 0 0 -8 454.9341 4941.1006)">
                                <stop offset="0" style="stop-color:rgb(72, 179, 1)" />
                                <stop offset="0.04" style="stop-color:rgb(75, 224, 45)" />
                                <stop offset="0.117" style="stop-color:rgb(27, 254, 57)" />
                                <stop offset="0.196" style="stop-color:rgb(16, 253, 134)" />
                                <stop offset="0.281" style="stop-color:rgb(12, 165, 253)" />
                                <stop offset="0.669" style="stop-color:rgb(33, 132, 245)" />
                                <stop offset="0.888" style="stop-color:rgb(60, 101, 237)" />
                                <stop offset="1" style="stop-color:rgb(35, 15, 218)" />
                            </linearGradient>
                            <path style="fill:url(#SVGID_4_);" d="M126.089,432.915c-6.649-3.939-13.094-8.211-19.312-12.8
                                c-3.469-2.737-8.499-2.143-11.236,1.326c-2.737,3.469-2.143,8.499,1.326,11.236c0.13,0.102,0.262,0.201,0.398,0.295
                                c6.65,4.923,13.547,9.502,20.664,13.72c3.802,2.253,8.711,0.998,10.964-2.804c2.253-3.802,0.998-8.711-2.804-10.964V432.915z"
                            />

                            <linearGradient id="SVGID_5_" gradientUnits="userSpaceOnUse" x1="-51.2277" y1="618.9692" x2="-51.2277" y2="553.7772" gradientTransform="matrix(8 0 0 -8 454.9341 4941.1006)">
                                <stop offset="0" style="stop-color:rgb(72, 179, 1)" />
                                <stop offset="0.04" style="stop-color:rgb(75, 224, 45)" />
                                <stop offset="0.117" style="stop-color:rgb(27, 254, 57)" />
                                <stop offset="0.196" style="stop-color:rgb(16, 253, 134)" />
                                <stop offset="0.281" style="stop-color:rgb(12, 165, 253)" />
                                <stop offset="0.669" style="stop-color:rgb(33, 132, 245)" />
                                <stop offset="0.888" style="stop-color:rgb(60, 101, 237)" />
                                <stop offset="1" style="stop-color:rgb(35, 15, 218)" />
                            </linearGradient>
                            <path style="fill:url(#SVGID_5_);" d="M58.153,370.827c-4.51-6.27-8.696-12.767-12.544-19.464c-2.209-3.833-7.107-5.149-10.94-2.94
                                s-5.149,7.107-2.94,10.94c4.122,7.161,8.608,14.106,13.44,20.808c2.653,3.533,7.668,4.246,11.201,1.593
                                C59.802,379.187,60.589,374.361,58.153,370.827L58.153,370.827z" />

                            <linearGradient id="SVGID_6_" gradientUnits="userSpaceOnUse" x1="-53.9308" y1="618.9692" x2="-53.9308" y2="553.7772" gradientTransform="matrix(8 0 0 -8 454.9341 4941.1006)">
                                <stop offset="0" style="stop-color:rgb(72, 179, 1)" />
                                <stop offset="0.04" style="stop-color:rgb(75, 224, 45)" />
                                <stop offset="0.117" style="stop-color:rgb(27, 254, 57)" />
                                <stop offset="0.196" style="stop-color:rgb(16, 253, 134)" />
                                <stop offset="0.281" style="stop-color:rgb(12, 165, 253)" />
                                <stop offset="0.669" style="stop-color:rgb(33, 132, 245)" />
                                <stop offset="0.888" style="stop-color:rgb(60, 101, 237)" />
                                <stop offset="1" style="stop-color:rgb(35, 15, 218)" />
                            </linearGradient>
                            <path style="fill:url(#SVGID_6_);" d="M35.137,330.723c-3.131-7.052-5.895-14.262-8.28-21.6c-1.16-4.263-5.557-6.779-9.82-5.618
                                s-6.779,5.557-5.618,9.82c0.068,0.248,0.147,0.493,0.238,0.734c2.553,7.881,5.512,15.625,8.864,23.2
                                c1.283,2.896,4.153,4.762,7.32,4.76c4.418-0.001,7.999-3.584,7.997-8.003c0-1.115-0.234-2.218-0.685-3.237L35.137,330.723z"
                            />

                            <linearGradient id="SVGID_7_" gradientUnits="userSpaceOnUse" x1="-55.4695" y1="618.9692" x2="-55.4695" y2="553.7772" gradientTransform="matrix(8 0 0 -8 454.9341 4941.1006)">
                                <stop offset="0" style="stop-color:rgb(72, 179, 1)" />
                                <stop offset="0.04" style="stop-color:rgb(75, 224, 45)" />
                                <stop offset="0.117" style="stop-color:rgb(27, 254, 57)" />
                                <stop offset="0.196" style="stop-color:rgb(16, 253, 134)" />
                                <stop offset="0.281" style="stop-color:rgb(12, 165, 253)" />
                                <stop offset="0.669" style="stop-color:rgb(33, 132, 245)" />
                                <stop offset="0.888" style="stop-color:rgb(60, 101, 237)" />
                                <stop offset="1" style="stop-color:rgb(35, 15, 218)" />
                            </linearGradient>
                            <path style="fill:url(#SVGID_7_);" d="M14.721,296.219c4.317-0.92,7.073-5.162,6.16-9.48c-1.594-7.557-2.801-15.191-3.616-22.872
                                c-0.466-4.396-4.408-7.582-8.804-7.116s-7.582,4.408-7.116,8.804c0.876,8.227,2.173,16.403,3.888,24.496
                                c0.915,4.322,5.162,7.084,9.484,6.169C14.719,296.22,14.72,296.219,14.721,296.219L14.721,296.219z"
                            />

                            <linearGradient id="SVGID_8_" gradientUnits="userSpaceOnUse" x1="0.8604" y1="618.9692" x2="0.8604" y2="553.7772" gradientTransform="matrix(8 0 0 -8 454.9341 4941.1006)">
                                <stop offset="0" style="stop-color:rgb(72, 179, 1)" />
                                <stop offset="0.04" style="stop-color:rgb(75, 224, 45)" />
                                <stop offset="0.117" style="stop-color:rgb(27, 254, 57)" />
                                <stop offset="0.196" style="stop-color:rgb(16, 253, 134)" />
                                <stop offset="0.281" style="stop-color:rgb(12, 165, 253)" />
                                <stop offset="0.669" style="stop-color:rgb(33, 132, 245)" />
                                <stop offset="0.888" style="stop-color:rgb(60, 101, 237)" />
                                <stop offset="1" style="stop-color:rgb(35, 15, 218)" />
                            </linearGradient>
                            <path style="fill:url(#SVGID_8_);" d="M467.209,288.051c-4.288-1.062-8.625,1.552-9.688,5.84c-1.854,7.5-4.094,14.899-6.712,22.168
                                c-1.498,4.158,0.658,8.742,4.816,10.24c4.158,1.498,8.742-0.658,10.24-4.816c2.807-7.785,5.21-15.711,7.2-23.744
                                c1.06-4.289-1.558-8.626-5.847-9.686C467.216,288.053,467.212,288.052,467.209,288.051L467.209,288.051z"
                            />

                            <linearGradient id="SVGID_9_" gradientUnits="userSpaceOnUse" x1="-31.81" y1="618.9692" x2="-31.81" y2="553.7772" gradientTransform="matrix(8 0 0 -8 454.9341 4941.1006)">
                                <stop offset="0" style="stop-color:rgb(72, 179, 1)" />
                                <stop offset="0.04" style="stop-color:rgb(75, 224, 45)" />
                                <stop offset="0.117" style="stop-color:rgb(27, 254, 57)" />
                                <stop offset="0.196" style="stop-color:rgb(16, 253, 134)" />
                                <stop offset="0.281" style="stop-color:rgb(12, 165, 253)" />
                                <stop offset="0.669" style="stop-color:rgb(33, 132, 245)" />
                                <stop offset="0.888" style="stop-color:rgb(60, 101, 237)" />
                                <stop offset="1" style="stop-color:rgb(35, 15, 218)" />
                            </linearGradient>
                            <path style="fill:url(#SVGID_9_);" d="M213.217,462.411c-7.668-0.913-15.283-2.221-22.816-3.92c-4.31-0.974-8.594,1.73-9.568,6.04
                                c-0.974,4.31,1.73,8.594,6.04,9.568l0,0c8.074,1.82,16.237,3.222,24.456,4.2c0.319,0.039,0.639,0.057,0.96,0.056
                                c4.418-0.009,7.992-3.598,7.983-8.017C220.264,466.292,217.236,462.889,213.217,462.411z" />

                            <linearGradient id="SVGID_10_" gradientUnits="userSpaceOnUse" x1="-1.4615" y1="618.9692" x2="-1.4615" y2="553.7772" gradientTransform="matrix(8 0 0 -8 454.9341 4941.1006)">
                                <stop offset="0" style="stop-color:rgb(72, 179, 1)" />
                                <stop offset="0.04" style="stop-color:rgb(75, 224, 45)" />
                                <stop offset="0.117" style="stop-color:rgb(27, 254, 57)" />
                                <stop offset="0.196" style="stop-color:rgb(16, 253, 134)" />
                                <stop offset="0.281" style="stop-color:rgb(12, 165, 253)" />
                                <stop offset="0.669" style="stop-color:rgb(33, 132, 245)" />
                                <stop offset="0.888" style="stop-color:rgb(60, 101, 237)" />
                                <stop offset="1" style="stop-color:rgb(35, 15, 218)" />
                            </linearGradient>
                            <path style="fill:url(#SVGID_10_);" d="M452.465,333.683c-3.977-1.92-8.757-0.255-10.68,3.72
                                c-3.363,6.954-7.085,13.729-11.152,20.296c-2.262,3.796-1.018,8.706,2.778,10.967c3.704,2.207,8.49,1.082,10.822-2.543
                                c4.354-7.039,8.341-14.3,11.944-21.752C458.104,340.395,456.442,335.61,452.465,333.683
                                C452.466,333.683,452.466,333.683,452.465,333.683z" />

                            <linearGradient id="SVGID_11_" gradientUnits="userSpaceOnUse" x1="-4.8657" y1="618.9692" x2="-4.8657" y2="553.7772" gradientTransform="matrix(8 0 0 -8 454.9341 4941.1006)">
                                <stop offset="0" style="stop-color:rgb(72, 179, 1)" />
                                <stop offset="0.04" style="stop-color:rgb(75, 224, 45)" />
                                <stop offset="0.117" style="stop-color:rgb(27, 254, 57)" />
                                <stop offset="0.196" style="stop-color:rgb(16, 253, 134)" />
                                <stop offset="0.281" style="stop-color:rgb(12, 165, 253)" />
                                <stop offset="0.669" style="stop-color:rgb(33, 132, 245)" />
                                <stop offset="0.888" style="stop-color:rgb(60, 101, 237)" />
                                <stop offset="1" style="stop-color:rgb(35, 15, 218)" />
                            </linearGradient>
                            <path style="fill:url(#SVGID_11_);" d="M417.449,376.739c-4.72,6.123-9.753,11.997-15.08,17.6
                                c-3.046,3.203-2.919,8.27,0.284,11.316s8.27,2.919,11.316-0.284l0,0c5.696-6.003,11.085-12.291,16.144-18.84
                                c2.75-3.458,2.176-8.491-1.283-11.241c-3.458-2.75-8.491-2.176-11.241,1.283c-0.048,0.06-0.095,0.121-0.141,0.182L417.449,376.739z
                                " />

                            <linearGradient id="SVGID_12_" gradientUnits="userSpaceOnUse" x1="1.986" y1="618.9692" x2="1.986" y2="553.7772" gradientTransform="matrix(8 0 0 -8 454.9341 4941.1006)">
                                <stop offset="0" style="stop-color:rgb(72, 179, 1)" />
                                <stop offset="0.04" style="stop-color:rgb(75, 224, 45)" />
                                <stop offset="0.117" style="stop-color:rgb(27, 254, 57)" />
                                <stop offset="0.196" style="stop-color:rgb(16, 253, 134)" />
                                <stop offset="0.281" style="stop-color:rgb(12, 165, 253)" />
                                <stop offset="0.669" style="stop-color:rgb(33, 132, 245)" />
                                <stop offset="0.888" style="stop-color:rgb(60, 101, 237)" />
                                <stop offset="1" style="stop-color:rgb(35, 15, 218)" />
                            </linearGradient>
                            <path style="fill:url(#SVGID_12_);" d="M472.145,240.387c-4.346-0.222-8.05,3.122-8.271,7.468
                                c-0.004,0.081-0.007,0.163-0.009,0.244c-0.271,7.72-0.942,15.421-2.008,23.072c-0.603,4.371,2.447,8.404,6.816,9.016
                                c0.371,0.054,0.745,0.081,1.12,0.08c3.987-0.006,7.362-2.947,7.912-6.896c1.139-8.195,1.857-16.443,2.152-24.712
                                C480.01,244.246,476.559,240.543,472.145,240.387L472.145,240.387z" />

                            <linearGradient id="SVGID_13_" gradientUnits="userSpaceOnUse" x1="-9.2068" y1="618.9692" x2="-9.2068" y2="553.7772" gradientTransform="matrix(8 0 0 -8 454.9341 4941.1006)">
                                <stop offset="0" style="stop-color:rgb(72, 179, 1)" />
                                <stop offset="0.04" style="stop-color:rgb(75, 224, 45)" />
                                <stop offset="0.117" style="stop-color:rgb(27, 254, 57)" />
                                <stop offset="0.196" style="stop-color:rgb(16, 253, 134)" />
                                <stop offset="0.281" style="stop-color:rgb(12, 165, 253)" />
                                <stop offset="0.669" style="stop-color:rgb(33, 132, 245)" />
                                <stop offset="0.888" style="stop-color:rgb(60, 101, 237)" />
                                <stop offset="1" style="stop-color:rgb(35, 15, 218)" />
                            </linearGradient>
                            <path style="fill:url(#SVGID_13_);" d="M385.609,410.275c-5.888,5.026-12.029,9.747-18.4,14.144
                                c-3.643,2.518-4.554,7.513-2.036,11.156c2.518,3.643,7.513,4.554,11.156,2.036l0,0c6.813-4.731,13.381-9.804,19.68-15.2
                                c3.358-2.872,3.752-7.922,0.88-11.28s-7.922-3.752-11.28-0.88V410.275z" />

                            <linearGradient id="SVGID_14_" gradientUnits="userSpaceOnUse" x1="-19.9326" y1="618.9692" x2="-19.9326" y2="553.7772" gradientTransform="matrix(8 0 0 -8 454.9341 4941.1006)">
                                <stop offset="0" style="stop-color:rgb(72, 179, 1)" />
                                <stop offset="0.04" style="stop-color:rgb(75, 224, 45)" />
                                <stop offset="0.117" style="stop-color:rgb(27, 254, 57)" />
                                <stop offset="0.196" style="stop-color:rgb(16, 253, 134)" />
                                <stop offset="0.281" style="stop-color:rgb(12, 165, 253)" />
                                <stop offset="0.669" style="stop-color:rgb(33, 132, 245)" />
                                <stop offset="0.888" style="stop-color:rgb(60, 101, 237)" />
                                <stop offset="1" style="stop-color:rgb(35, 15, 218)" />
                            </linearGradient>
                            <path style="fill:url(#SVGID_14_);" d="M304.897,454.475c-7.393,2.228-14.896,4.07-22.48,5.52
                                c-4.339,0.835-7.179,5.028-6.345,9.367c0.723,3.761,4.011,6.482,7.841,6.489c0.507,0.002,1.013-0.044,1.512-0.136
                                c8.13-1.554,16.173-3.532,24.096-5.928c4.196-1.383,6.477-5.906,5.094-10.102C313.281,455.637,309.007,453.346,304.897,454.475
                                L304.897,454.475z" />

                            <linearGradient id="SVGID_15_" gradientUnits="userSpaceOnUse" x1="-25.8324" y1="618.9692" x2="-25.8324" y2="553.7772" gradientTransform="matrix(8 0 0 -8 454.9341 4941.1006)">
                                <stop offset="0" style="stop-color:rgb(72, 179, 1)" />
                                <stop offset="0.04" style="stop-color:rgb(75, 224, 45)" />
                                <stop offset="0.117" style="stop-color:rgb(27, 254, 57)" />
                                <stop offset="0.196" style="stop-color:rgb(16, 253, 134)" />
                                <stop offset="0.281" style="stop-color:rgb(12, 165, 253)" />
                                <stop offset="0.669" style="stop-color:rgb(33, 132, 245)" />
                                <stop offset="0.888" style="stop-color:rgb(60, 101, 237)" />
                                <stop offset="1" style="stop-color:rgb(35, 15, 218)" />
                            </linearGradient>
                            <path style="fill:url(#SVGID_15_);" d="M259.489,463.211c-6.4,0.544-12.952,0.8-19.48,0.8h-3.656
                                c-4.363,0.062-7.929,3.498-8.152,7.856c-0.08,4.418,3.436,8.064,7.853,8.144c0.001,0,0.002,0,0.003,0h3.952
                                c6.992,0,14-0.312,20.8-0.896c4.411-0.254,7.781-4.036,7.526-8.447c-0.254-4.411-4.036-7.781-8.447-7.526
                                c-0.147,0.008-0.293,0.021-0.439,0.037L259.489,463.211z" />

                            <linearGradient id="SVGID_16_" gradientUnits="userSpaceOnUse" x1="-14.3009" y1="618.9692" x2="-14.3009" y2="553.7772" gradientTransform="matrix(8 0 0 -8 454.9341 4941.1006)">
                                <stop offset="0" style="stop-color:rgb(72, 179, 1)" />
                                <stop offset="0.04" style="stop-color:rgb(75, 224, 45)" />
                                <stop offset="0.117" style="stop-color:rgb(27, 254, 57)" />
                                <stop offset="0.196" style="stop-color:rgb(16, 253, 134)" />
                                <stop offset="0.281" style="stop-color:rgb(12, 165, 253)" />
                                <stop offset="0.669" style="stop-color:rgb(33, 132, 245)" />
                                <stop offset="0.888" style="stop-color:rgb(60, 101, 237)" />
                                <stop offset="1" style="stop-color:rgb(35, 15, 218)" />
                            </linearGradient>
                            <path style="fill:url(#SVGID_16_);" d="M347.529,436.563c-6.773,3.709-13.731,7.068-20.848,10.064
                                c-4.094,1.661-6.067,6.326-4.407,10.42c1.661,4.094,6.326,6.067,10.42,4.407c0.06-0.024,0.119-0.049,0.178-0.075
                                c7.626-3.209,15.081-6.808,22.336-10.784c3.875-2.123,5.295-6.985,3.172-10.86c-2.123-3.875-6.985-5.295-10.86-3.172H347.529z"
                            />

                            <linearGradient id="SVGID_17_" gradientUnits="userSpaceOnUse" x1="-26.8656" y1="618.9692" x2="-26.8656" y2="553.7772" gradientTransform="matrix(8 0 0 -8 454.9341 4941.1006)">
                                <stop offset="0" style="stop-color:rgb(72, 179, 1)" />
                                <stop offset="0.04" style="stop-color:rgb(75, 224, 45)" />
                                <stop offset="0.117" style="stop-color:rgb(27, 254, 57)" />
                                <stop offset="0.196" style="stop-color:rgb(16, 253, 134)" />
                                <stop offset="0.281" style="stop-color:rgb(12, 165, 253)" />
                                <stop offset="0.669" style="stop-color:rgb(33, 132, 245)" />
                                <stop offset="0.888" style="stop-color:rgb(60, 101, 237)" />
                                <stop offset="1" style="stop-color:rgb(35, 15, 218)" />
                            </linearGradient>
                            <path style="fill:url(#SVGID_17_);" d="M240.009,72.011c-92.784,0-168,75.216-168,168s75.216,168,168,168s168-75.216,168-168
                                C407.904,147.271,332.749,72.117,240.009,72.011z M248.009,391.603v-23.592c0-4.418-3.582-8-8-8s-8,3.582-8,8v23.592
                                c-77.517-4.156-139.436-66.075-143.592-143.592h23.592c4.418,0,8-3.582,8-8s-3.582-8-8-8H88.417
                                c4.156-77.517,66.075-139.436,143.592-143.592v23.592c0,4.418,3.582,8,8,8s8-3.582,8-8V88.419
                                c77.517,4.156,139.436,66.075,143.592,143.592h-23.592c-4.418,0-8,3.582-8,8s3.582,8,8,8h23.592
                                C387.446,325.528,325.527,387.447,248.009,391.603L248.009,391.603z" />

                            <linearGradient id="SVGID_18_" gradientUnits="userSpaceOnUse" x1="-29.8648" y1="618.9692" x2="-29.8648" y2="553.7772" gradientTransform="matrix(8 0 0 -8 454.9341 4941.1006)">
                                <stop offset="0" style="stop-color:rgb(72, 179, 1)" />
                                <stop offset="0.04" style="stop-color:rgb(75, 224, 45)" />
                                <stop offset="0.117" style="stop-color:rgb(27, 254, 57)" />
                                <stop offset="0.196" style="stop-color:rgb(16, 253, 134)" />
                                <stop offset="0.281" style="stop-color:rgb(12, 165, 253)" />
                                <stop offset="0.669" style="stop-color:rgb(33, 132, 245)" />
                                <stop offset="0.888" style="stop-color:rgb(60, 101, 237)" />
                                <stop offset="1" style="stop-color:rgb(35, 15, 218)" />
                            </linearGradient>
                            <path style="fill:url(#SVGID_18_);" d="M248.009,217.483v-73.472c0-4.418-3.582-8-8-8s-8,3.582-8,8v73.472
                                c-6.775,2.42-12.108,7.753-14.528,14.528h-41.472c-4.418,0-8,3.582-8,8s3.582,8,8,8h41.472
                                c4.384,12.476,18.052,19.036,30.528,14.652s19.036-18.052,14.652-30.528C260.253,225.281,254.863,219.892,248.009,217.483z
                                 M240.009,248.011c-4.418,0-8-3.582-8-8s3.582-8,8-8s8,3.582,8,8S244.428,248.011,240.009,248.011z"
                            />
                        </g>

                    </svg>